# xmcd CD database file
#
# Track frame offsets:
#	150
#	13579
#	23765
#	35056
#	45215
#	54083
#	62827
#	72690
#	86401
#	94287
#	99546
#	108026
#	115893
#
# Disc length: 1645 seconds
#
# Revision: 0
# Processed by: cddbd v1.5.2PL0 Copyright (c) Steve Scherf et al.
# Submitted via: CDex 1.70beta2
#
DISCID=a0066b0d
DTITLE=Panda - Panda e os Caricas
DYEAR=2012
DGENRE=Country
TTITLE0=01. Os Caricas
TTITLE1=02. Pinguim
TTITLE2=03. Sou Uma Taça
TTITLE3=04. Os Sons dos Animais
TTITLE4=05. O Alfabeto Divertido
TTITLE5=06. Baile Olímpico
TTITLE6=07. Um Elefante
TTITLE7=08. A Dança do Arco
TTITLE8=09. Lava as Mãos
TTITLE9=10. Acima e Abaixo
TTITLE10=11. Ponho-me de Pé
TTITLE11=12. Canta Comigo
TTITLE12=13. O Arco-Íris 
EXTD=YEAR: 2012
EXTT0=
EXTT1=
EXTT2=
EXTT3=
EXTT4=
EXTT5=
EXTT6=
EXTT7=
EXTT8=
EXTT9=
EXTT10=
EXTT11=
EXTT12=
PLAYORDER=
